<svg width="33" height="33" viewBox="0 0 33 33" fill="none" xmlns="http://www.w3.org/2000/svg">
<path d="M0 -1.64278C-1.01252 -1.64278 -1.83333 -0.82197 -1.83333 0.190552C-1.83333 1.20307 -1.01252 2.02389 0 2.02389V-1.64278ZM3.66667 0.190552L5.4946 0.0499416C5.42113 -0.90522 4.62465 -1.64278 3.66667 -1.64278V0.190552ZM33 5.69055L34.8221 5.89301C34.8797 5.37472 34.7139 4.85643 34.3661 4.46786C34.0183 4.07929 33.5215 3.85722 33 3.85722V5.69055ZM4.08974 5.69055L2.26181 5.83116L4.08974 5.69055ZM28.1209 22.4081L27.9903 20.5794L28.1209 22.4081ZM31.5039 19.1557L29.6818 18.9532L31.5039 19.1557ZM9.13742 23.7641L9.0068 21.9354L9.13742 23.7641ZM0 2.02389H3.66667V-1.64278H0V2.02389ZM9.26804 25.5927L28.2515 24.2368L27.9903 20.5794L9.0068 21.9354L9.26804 25.5927ZM33.326 19.3581L34.8221 5.89301L31.1779 5.48809L29.6818 18.9532L33.326 19.3581ZM1.83873 0.331162L2.26181 5.83116L5.91768 5.54994L5.4946 0.0499416L1.83873 0.331162ZM2.26181 5.83116L3.39238 20.5286L7.04825 20.2473L5.91768 5.54994L2.26181 5.83116ZM33 3.85722H4.08974V7.52389H33V3.85722ZM28.2515 24.2368C30.8984 24.0477 33.0329 21.9956 33.326 19.3581L29.6818 18.9532C29.5841 19.8324 28.8726 20.5164 27.9903 20.5794L28.2515 24.2368ZM9.0068 21.9354C8.00075 22.0073 7.1256 21.253 7.04825 20.2473L3.39238 20.5286C3.62445 23.5455 6.24989 25.8083 9.26804 25.5927L9.0068 21.9354Z" fill="white"/>
<rect x="10.0833" y="32.2739" width="0.0168919" height="0.0168919" stroke="white" stroke-width="3.66667" stroke-linejoin="round"/>
<rect x="26.5833" y="32.2739" width="0.0168919" height="0.0168919" stroke="white" stroke-width="3.66667" stroke-linejoin="round"/>
</svg>
