<svg width="21" height="41" viewBox="0 0 21 41" fill="none" xmlns="http://www.w3.org/2000/svg">
<mask id="path-1-inside-1_13_9" fill="white">
<path fill-rule="evenodd" clip-rule="evenodd" d="M10.5 40.5C11.799 40.5 21 16.299 21 10.5C21 4.70101 16.299 0 10.5 0C4.70101 0 0 4.70101 0 10.5C0 16.299 9.201 40.5 10.5 40.5ZM10.701 15.0596C13.1863 15.0596 15.201 13.0449 15.201 10.5596C15.201 8.07435 13.1863 6.05963 10.701 6.05963C8.21572 6.05963 6.201 8.07435 6.201 10.5596C6.201 13.0449 8.21572 15.0596 10.701 15.0596Z"/>
</mask>
<path d="M18.76 10.5C18.76 11.5883 18.2823 13.8953 17.3885 17.0175C16.524 20.0375 15.3512 23.5547 14.1319 26.9094C12.9121 30.2654 11.6592 33.4215 10.6406 35.7207C10.1278 36.8783 9.69434 37.7731 9.36846 38.3566C9.19992 38.6583 9.09871 38.8067 9.06279 38.8529C9.04086 38.8812 9.09271 38.807 9.21566 38.7052C9.26908 38.661 9.73528 38.26 10.5 38.26L10.5 42.74C11.3459 42.74 11.9087 42.2918 12.0732 42.1556C12.3071 41.9618 12.4844 41.7511 12.6012 41.6007C12.8428 41.2896 13.0724 40.9123 13.2798 40.541C13.7057 39.7784 14.2043 38.7371 14.7367 37.5353C15.8086 35.1155 17.0996 31.859 18.3424 28.4398C19.5856 25.0194 20.7943 21.399 21.6956 18.2504C22.5676 15.204 23.24 12.3112 23.24 10.5H18.76ZM10.5 2.24C15.0619 2.24 18.76 5.93813 18.76 10.5H23.24C23.24 3.46389 17.5361 -2.24 10.5 -2.24V2.24ZM2.24 10.5C2.24 5.93813 5.93813 2.24 10.5 2.24V-2.24C3.46389 -2.24 -2.24 3.46389 -2.24 10.5H2.24ZM10.5 38.26C11.2647 38.26 11.7309 38.661 11.7843 38.7052C11.9073 38.807 11.9591 38.8812 11.9372 38.8529C11.9013 38.8067 11.8001 38.6583 11.6315 38.3566C11.3057 37.7731 10.8722 36.8784 10.3594 35.7207C9.34084 33.4215 8.08795 30.2654 6.86812 26.9094C5.64876 23.5547 4.47595 20.0375 3.61146 17.0175C2.71772 13.8953 2.24 11.5883 2.24 10.5H-2.24C-2.24 12.3112 -1.56759 15.204 -0.695555 18.2504C0.205739 21.399 1.41437 25.0194 2.65763 28.4398C3.90043 31.859 5.19135 35.1155 6.26334 37.5353C6.79574 38.7371 7.29427 39.7784 7.72021 40.541C7.92757 40.9123 8.15724 41.2896 8.39881 41.6007C8.51563 41.7511 8.69288 41.9618 8.92685 42.1556C9.09128 42.2918 9.6541 42.74 10.5 42.74L10.5 38.26ZM12.961 10.5596C12.961 11.8078 11.9492 12.8196 10.701 12.8196V17.2996C14.4234 17.2996 17.441 14.282 17.441 10.5596H12.961ZM10.701 8.29963C11.9492 8.29963 12.961 9.31147 12.961 10.5596H17.441C17.441 6.83723 14.4234 3.81963 10.701 3.81963V8.29963ZM8.441 10.5596C8.441 9.31147 9.45284 8.29963 10.701 8.29963V3.81963C6.97861 3.81963 3.961 6.83723 3.961 10.5596H8.441ZM10.701 12.8196C9.45284 12.8196 8.441 11.8078 8.441 10.5596H3.961C3.961 14.282 6.97861 17.2996 10.701 17.2996V12.8196Z" fill="white" mask="url(#path-1-inside-1_13_9)"/>
</svg>
